<?xml version="1.0" encoding="iso-8859-1"?>
<!DOCTYPE svg PUBLIC "-//W3C//DTD SVG 1.1//EN" "http://www.w3.org/Graphics/SVG/1.1/DTD/svg11.dtd">
<svg 
 version="1.1" xmlns="http://www.w3.org/2000/svg" xmlns:xlink="http://www.w3.org/1999/xlink" x="0px" y="0px" width="512px"
	 height="512px" viewBox="0 0 512 512" style="enable-background:new 0 0 512 512;" xml:space="preserve"
><g id="afcae5a789ccd549f9c6e2a2f81877e2"><g></g><path style="display: inline; fill-rule: evenodd; clip-rule: evenodd;" d="M233.075,506.795c-9.626-2.583-20.355-12.333-23.846-21.669
		c0,0-22.737-60.792-25.261-139.548c-2.58-80.804,24.787-147.931,24.787-147.931c3.766-9.229,0.778-11.328-6.632-4.664
		c0,0-46.53,41.833-51.386,126.046c-7.687,133.34,46.725,169.895,46.725,169.895c8.271,5.556,6.887,10.093-3.079,10.082
		c0,0-127.887-0.146-108.395-181.145C103.826,152.239,215.894,150.47,215.894,150.47c9.966-0.159,19.729,0.404,21.697,1.246
		c0.747,0.321,2.571,0.289,5.065-0.024c-2.102-55.313-47.758-99.671-103.572-99.668c-3.701,0-6.706-3.001-6.706-6.703
		s3.005-6.706,6.706-6.706c39.181,0,73.924,19.352,95.184,48.997c1.418-11.306,6.101-30.991,21.549-42.422
		c35.521-26.287,62.229-18.374,84.475-26.057C360.569,12.136,361.426,0.5,361.426,0.5s4.424,51.792-32.127,81.623
		c-32.931,26.873-74.304,22.535-85.799,20.67c7.116,13.995,11.498,29.602,12.444,46.115c0.871-0.235,1.746-0.478,2.625-0.734
		c0,0,164.179-47.928,169.307,154.467C434.427,560.832,233.075,506.795,233.075,506.795z"></path></g></svg>